<svg width="26" height="26" viewBox="0 0 26 26" fill="none" xmlns="http://www.w3.org/2000/svg">
<path d="M25.3799 24.8531L25.909 1.67963C25.9139 1.47004 25.8735 1.25993 25.7905 1.06354C25.7075 0.867156 25.584 0.689078 25.4281 0.541372C25.2723 0.393667 25.0879 0.279786 24.8873 0.207448C24.6868 0.13511 24.4748 0.106003 24.2658 0.1221L1.15723 1.89324C1.08749 1.8985 1.02159 1.92373 0.967378 1.96592C0.913164 2.00812 0.872922 2.06551 0.851448 2.13124C0.829972 2.19698 0.828168 2.2683 0.846248 2.33671C0.86433 2.40512 0.901535 2.46773 0.953433 2.51709L3.7091 5.12909C3.8656 5.27742 4.07709 5.3541 4.29072 5.33996L19.5347 4.17306L2.13308 22.5318C1.9971 22.6753 2.00832 22.9088 2.15802 23.0506L4.19925 24.9855C4.34894 25.1273 4.58267 25.1261 4.71864 24.9826L22.1203 6.62382L21.7705 21.9084C21.7644 22.1193 21.8523 22.3264 22.0122 22.4779L24.7679 25.0899C24.9992 25.3092 25.3723 25.1677 25.3799 24.8531Z" fill="#393939"/>
</svg>
