<svg width="19" height="10" viewBox="0 0 19 10" fill="none" xmlns="http://www.w3.org/2000/svg">
<path d="M9.92061 9.71398L18.1705 1.04614C18.2656 0.946112 18.3214 0.829052 18.3316 0.707639C18.3419 0.586226 18.3063 0.465085 18.2287 0.357335C18.151 0.249584 18.0344 0.159331 17.8913 0.0963449C17.7483 0.0333595 17.5842 4.19617e-05 17.417 9.53674e-07L0.917259 9.53674e-07C0.749949 -8.01086e-05 0.5858 0.0331488 0.4426 0.0960855C0.299401 0.159022 0.182614 0.249268 0.104896 0.357039C0.0271785 0.464812 -0.0085058 0.586 0.0017109 0.707472C0.0119276 0.828943 0.0676555 0.946065 0.162855 1.04614L8.41272 9.71398C8.49745 9.80228 8.61024 9.8744 8.7415 9.9242C8.87277 9.974 9.01862 10 9.16667 10C9.31471 10 9.46057 9.974 9.59183 9.9242C9.72309 9.8744 9.83589 9.80228 9.92061 9.71398Z" fill="white"/>
</svg>
