<svg width="49" height="49" viewBox="0 0 49 49" fill="none" xmlns="http://www.w3.org/2000/svg">
<path d="M48.1833 45.3227V13.4727H38.3833V45.3227H35.9333V20.006H26.1333V45.3227H23.6833V26.5393H13.8833V45.3227H11.4333V33.8893H1.63333V45.3227H0.816667C0.365867 45.3227 0 45.6877 0 46.1393C0 46.5909 0.365867 46.956 0.816667 46.956H1.63333H11.4333H13.8833H23.6833H26.1333H35.9333H38.3833H48.1833C48.6341 46.956 49 46.5909 49 46.1393C49 45.6877 48.6341 45.3227 48.1833 45.3227ZM3.26667 45.3227V35.5227H9.8V45.3227H3.26667ZM15.5167 45.3227V28.1727H22.05V45.3227H15.5167ZM27.7667 45.3227V21.6393H34.3V45.3227H27.7667ZM40.0167 45.3227V15.106H46.55V45.3227H40.0167Z" fill="#166F32"/>
<path d="M6.55791 22.7254C6.69593 22.7254 6.83721 22.6902 6.96543 22.6159L36.5851 5.51493L34.7313 9.5901C34.5443 10.0009 34.7256 10.4852 35.1363 10.6714C35.2458 10.722 35.3609 10.7449 35.4744 10.7449C35.7848 10.7449 36.0812 10.5668 36.2184 10.2663L39.1274 3.8718C39.1364 3.85138 39.1347 3.82933 39.1421 3.8081C39.1576 3.76481 39.1699 3.72316 39.178 3.67743C39.1821 3.65456 39.1952 3.63578 39.1968 3.6121C39.1976 3.6023 39.1935 3.59413 39.1944 3.58433C39.196 3.5533 39.1927 3.52471 39.1911 3.49368C39.1886 3.44876 39.1813 3.4063 39.1715 3.36138C39.165 3.33035 39.1633 3.2985 39.1527 3.26828C39.1429 3.23888 39.1258 3.21438 39.1127 3.1858C39.1021 3.16701 39.1021 3.14496 39.0906 3.12536C39.0792 3.10576 39.0596 3.09433 39.0465 3.07555C39.0294 3.05023 39.0163 3.02328 38.9959 3.00041C38.9747 2.97591 38.9477 2.95876 38.9232 2.93671C38.8897 2.9065 38.8563 2.87873 38.8187 2.85423C38.7934 2.8379 38.7705 2.81993 38.7427 2.80605C38.7338 2.80196 38.7289 2.7938 38.7199 2.78971C38.6995 2.78073 38.6774 2.78236 38.657 2.77501C38.6121 2.75868 38.568 2.74725 38.5214 2.73908C38.5002 2.735 38.483 2.72275 38.461 2.72111L31.4687 2.04328C31.0154 1.99755 30.6202 2.32911 30.5769 2.77665C30.5328 3.22581 30.8619 3.62516 31.3103 3.66845L35.766 4.10046L6.14876 21.2015C5.75758 21.4269 5.62446 21.9267 5.84986 22.317C6.00095 22.5792 6.27535 22.7254 6.55791 22.7254Z" fill="#166F32"/>
</svg>
