<svg width="31" height="18" viewBox="0 0 31 18" fill="none" xmlns="http://www.w3.org/2000/svg">
<g clip-path="url(#clip0)">
<path d="M28.2703 0.976562H2.7297C1.22456 0.976562 0 1.6876 0 2.56155V15.4367C0 16.3106 1.22456 17.0217 2.7297 17.0217H28.2703C29.7754 17.0217 31 16.3106 31 15.4367V2.56155C31 1.6876 29.7754 0.976562 28.2703 0.976562Z" fill="#F0F9FF"/>
<path d="M12.0229 6.62015L1.04308 1.31641C0.573838 1.53111 0.228357 1.83289 0.0800781 2.17963L10.0184 6.98025H12.0226L12.0229 6.62015Z" fill="#F40055"/>
<path d="M18.9766 6.98016H21.0309L30.9271 2.19986C30.7864 1.851 30.447 1.54623 29.9818 1.32812L18.9766 6.64414V6.98016Z" fill="#C20044"/>
<path d="M10.0183 11.0195L0.0800781 15.8201C0.228357 16.1668 0.573838 16.4686 1.04308 16.6833L12.0229 11.3796L12.0226 11.0195H10.0183Z" fill="#F40055"/>
<path d="M18.9766 11.0195V11.3555L29.9819 16.6715C30.4471 16.4534 30.7864 16.1486 30.9272 15.7998L21.031 11.0196L18.9766 11.0195Z" fill="#C20044"/>
<path d="M3.22461 0.976562L12.0222 5.22621V0.976562H3.22461Z" fill="#406BD4"/>
<path d="M18.9766 5.29263V0.976562H27.9425L18.9766 5.29263Z" fill="#3257B0"/>
<path d="M23.9004 6.98048L31.0006 3.55078V6.98048H23.9004Z" fill="#3257B0"/>
<path d="M0 3.49219V6.98173H7.22403L0 3.49219Z" fill="#406BD4"/>
<path d="M0 11.0195V14.4543L7.11063 11.0195H0Z" fill="#406BD4"/>
<path d="M3.05664 17.0238L12.0227 12.7109V17.0238H3.05664Z" fill="#406BD4"/>
<path d="M18.9766 17.0244V12.6602L28.0114 17.0244H18.9766Z" fill="#3257B0"/>
<path d="M31.0005 14.3945L24.0137 11.0195H31.0005V14.3945Z" fill="#3257B0"/>
<path d="M31 7.80879H17.55V0.976562H13.45V7.80879H0V10.1894H13.45V17.0217H17.55V10.1894H31V7.80879Z" fill="#F40055"/>
<path d="M17.55 7.80879V0.976562H15.5V17.0217H17.55V10.1894H31V7.80879H17.55Z" fill="#C20044"/>
</g>
<defs>
<clipPath id="clip0">
<rect width="31" height="18" fill="white"/>
</clipPath>
</defs>
</svg>
