<svg width="50" height="50" viewBox="0 0 50 50" fill="none" xmlns="http://www.w3.org/2000/svg">
<path d="M47.4259 19.4444H42.7481C41.9963 19.4444 41.3769 19.0306 41.0889 18.3361C40.8009 17.6417 40.9472 16.9102 41.4778 16.3787L44.7852 13.0722C45.2713 12.5861 45.5389 11.9389 45.5389 11.2519C45.5389 10.5639 45.2713 9.91759 44.7852 9.43056L40.5694 5.21481C39.5972 4.24259 37.9019 4.24074 36.9278 5.21481L33.6213 8.5213C33.0898 9.05185 32.3565 9.2 31.6639 8.91111C30.9694 8.62315 30.5556 8.0037 30.5556 7.25185V2.57407C30.5556 1.15463 29.4009 0 27.9815 0H22.0185C20.5991 0 19.4444 1.15463 19.4444 2.57407V7.25185C19.4444 8.0037 19.0306 8.62315 18.3361 8.91111C17.6435 9.20093 16.9102 9.05185 16.3787 8.5213L13.0722 5.21481C12.0981 4.24074 10.4028 4.24259 9.43056 5.21481L5.21481 9.43056C4.7287 9.91667 4.46111 10.5639 4.46111 11.2519C4.46111 11.9389 4.7287 12.5852 5.21481 13.0722L8.52222 16.3787C9.05278 16.9102 9.19815 17.6417 8.91111 18.3361C8.62407 19.0306 8.0037 19.4444 7.25185 19.4444H2.57407C1.15463 19.4444 0 20.5991 0 22.0185V27.9806C0 29.4009 1.15463 30.5556 2.57407 30.5556H7.25185C8.0037 30.5556 8.62315 30.9694 8.91111 31.6639C9.19907 32.3583 9.05278 33.0898 8.52222 33.6213L5.21481 36.9278C4.7287 37.4139 4.46111 38.0611 4.46111 38.7481C4.46111 39.4361 4.7287 40.0824 5.21481 40.5694L9.43056 44.7852C10.4037 45.7583 12.0981 45.7602 13.0722 44.7852L16.3787 41.4778C16.9102 40.9472 17.6407 40.8009 18.3361 41.0889C19.0306 41.3769 19.4444 41.9963 19.4444 42.7481V47.4259C19.4444 48.8454 20.5991 50 22.0185 50H27.9806C29.4 50 30.5546 48.8454 30.5546 47.4259V42.7481C30.5546 41.9963 30.9685 41.3769 31.663 41.0889C32.3583 40.8 33.0889 40.9472 33.6204 41.4778L36.9269 44.7852C37.9009 45.7593 39.5963 45.7574 40.5685 44.7852L44.7843 40.5694C45.2704 40.0833 45.538 39.4361 45.538 38.7481C45.538 38.0611 45.2704 37.4148 44.7843 36.9278L41.4768 33.6213C40.9463 33.0898 40.8009 32.3583 41.088 31.6639C41.375 30.9694 41.9963 30.5556 42.7481 30.5556H47.4259C48.8454 30.5556 50 29.4009 50 27.9815V22.0185C50 20.5991 48.8454 19.4444 47.4259 19.4444ZM48.1481 27.9815C48.1481 28.3796 47.8241 28.7037 47.4259 28.7037H42.7481C41.2444 28.7037 39.9528 29.5667 39.3778 30.9556C38.8018 32.3444 39.1046 33.8685 40.1685 34.9315L43.4759 38.238C43.7583 38.5204 43.7583 38.9787 43.4759 39.2602L39.2602 43.4759C38.9787 43.7574 38.5204 43.7593 38.238 43.4759L34.9315 40.1685C33.8676 39.1046 32.3444 38.8037 30.9556 39.3778C29.5667 39.9528 28.7037 41.2444 28.7037 42.7481V47.4259C28.7037 47.8241 28.3796 48.1481 27.9815 48.1481H22.0185C21.6204 48.1481 21.2963 47.8241 21.2963 47.4259V42.7481C21.2963 41.2444 20.4333 39.9528 19.0444 39.3778C18.5787 39.1843 18.0991 39.0898 17.625 39.0898C16.6861 39.0898 15.7759 39.4602 15.0685 40.1676L11.762 43.475C11.4787 43.7583 11.0204 43.7565 10.7398 43.475L6.52407 39.2593C6.24167 38.9769 6.24167 38.5185 6.52407 38.237L9.83148 34.9306C10.8944 33.8676 11.1981 32.3435 10.6222 30.9546C10.0472 29.5667 8.75556 28.7037 7.25185 28.7037H2.57407C2.17593 28.7037 1.85185 28.3796 1.85185 27.9815V22.0185C1.85185 21.6204 2.17593 21.2963 2.57407 21.2963H7.25185C8.75556 21.2963 10.0472 20.4333 10.6222 19.0444C11.1981 17.6556 10.8954 16.1315 9.83148 15.0685L6.52407 11.762C6.24167 11.4796 6.24167 11.0213 6.52407 10.7398L10.7398 6.52407C11.0213 6.24167 11.4796 6.24167 11.762 6.52407L15.0685 9.83055C16.1306 10.8926 17.6537 11.1972 19.0444 10.6213C20.4333 10.0472 21.2963 8.75556 21.2963 7.25185V2.57407C21.2963 2.17593 21.6204 1.85185 22.0185 1.85185H27.9806C28.3796 1.85185 28.7037 2.17593 28.7037 2.57407V7.25185C28.7037 8.75556 29.5667 10.0472 30.9556 10.6222C32.3463 11.1981 33.8685 10.8944 34.9315 9.83148L38.238 6.525C38.5213 6.24259 38.9796 6.24259 39.2602 6.525L43.4759 10.7407C43.7583 11.0231 43.7583 11.4815 43.4759 11.763L40.1685 15.0694C39.1056 16.1324 38.8018 17.6565 39.3778 19.0454C39.9528 20.4343 41.2444 21.2972 42.7481 21.2972H47.4259C47.8241 21.2963 48.1481 21.6204 48.1481 22.0185V27.9815Z" fill="#166F32"/>
<path d="M24.9993 16.668C20.404 16.668 16.666 20.4059 16.666 25.0013C16.666 29.5967 20.404 33.3346 24.9993 33.3346C29.5947 33.3346 33.3327 29.5967 33.3327 25.0013C33.3327 20.4059 29.5947 16.668 24.9993 16.668ZM24.9993 31.4828C21.4262 31.4828 18.5179 28.5744 18.5179 25.0013C18.5179 21.4282 21.4262 18.5198 24.9993 18.5198C28.5725 18.5198 31.4808 21.4282 31.4808 25.0013C31.4808 28.5744 28.5725 31.4828 24.9993 31.4828Z" fill="#166F32"/>
</svg>
