<svg width="25" height="37" viewBox="0 0 25 37" fill="none" xmlns="http://www.w3.org/2000/svg">
<path d="M12.5 0C5.60729 0 0 6.23667 0 13.9001C0 25.3779 11.6677 36.3991 12.1646 36.8627C12.2574 36.9505 12.3752 36.9991 12.4972 37C12.6191 37.0008 12.7374 36.9539 12.8312 36.8673C13.3281 36.4118 25 25.5803 25 13.9001C25 6.23667 19.3927 0 12.5 0ZM12.5021 35.6556C10.5844 33.7536 1.04167 23.7939 1.04167 13.9001C1.04167 6.87259 6.18229 1.15622 12.5 1.15622C18.8177 1.15622 23.9583 6.87259 23.9583 13.9001C23.9583 23.9616 14.425 33.7791 12.5021 35.6556Z" fill="white"/>
<path d="M12.5 6.9375C9.05312 6.9375 6.25 10.0489 6.25 13.8749C6.25 17.7009 9.05312 20.8123 12.5 20.8123C15.9469 20.8123 18.75 17.7009 18.75 13.8749C18.75 10.0489 15.9469 6.9375 12.5 6.9375ZM12.5 19.6561C9.62812 19.6561 7.29167 17.0627 7.29167 13.8749C7.29167 10.6872 9.62812 8.09374 12.5 8.09374C15.3719 8.09374 17.7083 10.6872 17.7083 13.8749C17.7083 17.0627 15.3719 19.6561 12.5 19.6561Z" fill="white"/>
</svg>
