<svg width="48" height="49" viewBox="0 0 48 49" fill="none" xmlns="http://www.w3.org/2000/svg">
<path d="M48 29.0463C48 26.9757 46.8 26.0072 45.6305 25.5333C46.5469 24.7723 47.1273 23.6528 47.1273 22.4071C47.1273 20.1191 45.1697 18.2577 42.7636 18.2577H30.226L30.8623 15.4277C31.7114 11.6525 31.1537 7.36448 30.9635 6.14039C30.5114 3.24157 27.8156 0 24.8841 0H24.6755C23.2826 0 20.9455 0.754374 20.9455 5.80926C20.9455 12.4675 19.1983 15.514 17.7329 16.8966C16.2956 18.2527 14.9132 18.2377 14.8364 18.2577H13.9636V16.5979H0V48.1339H13.9636V46.4741H38.4C40.8061 46.4741 42.7636 44.6126 42.7636 42.3246C42.7636 41.3586 42.4145 40.4689 41.8307 39.7627C43.8502 39.4 45.3818 37.7096 45.3818 35.6854C45.3818 34.7194 45.0327 33.8298 44.4489 33.1236C46.4684 32.7609 48 31.0704 48 29.0463ZM1.74545 46.4741V18.2577H12.2182V46.4741H1.74545ZM43.6364 31.536H41.0182H34.0364C33.5546 31.536 33.1636 31.9069 33.1636 32.3659C33.1636 32.8248 33.5546 33.1958 34.0364 33.1958H41.0182C42.4617 33.1958 43.6364 34.3128 43.6364 35.6854C43.6364 37.0581 42.4617 38.1751 41.0182 38.1751H39.2727H38.4H32.2909C31.8092 38.1751 31.4182 38.5461 31.4182 39.005C31.4182 39.4639 31.8092 39.8349 32.2909 39.8349H38.4C39.8435 39.8349 41.0182 40.9519 41.0182 42.3246C41.0182 43.6972 39.8435 44.8143 38.4 44.8143H13.9636V19.9175L14.8093 19.9166C14.894 19.9324 16.9213 19.9581 18.8954 18.1373C21.4141 15.8169 22.6909 11.6691 22.6909 5.80926C22.6909 4.25985 22.9484 1.65979 24.6755 1.65979H24.8841C26.8311 1.65979 28.9056 4.25736 29.2364 6.38271C29.417 7.53793 29.9433 11.5779 29.1552 15.08L28.0687 19.9175H42.7636C44.2071 19.9175 45.3818 21.0345 45.3818 22.4071C45.3818 23.7798 44.2071 24.8968 42.7636 24.8968H41.0182H40.1455H34.0364C33.5546 24.8968 33.1636 25.2678 33.1636 25.7267C33.1636 26.1856 33.5546 26.5566 34.0364 26.5566H40.1455C40.9161 26.5566 42.6109 26.5898 43.5089 26.7168C45.7876 27.0379 46.2545 27.8803 46.2545 29.0463C46.2545 30.4189 45.0799 31.536 43.6364 31.536Z" fill="#166F32"/>
</svg>
