<svg width="136" height="119" viewBox="0 0 136 119" fill="none" xmlns="http://www.w3.org/2000/svg">
<path d="M130.8 113.002L134.761 112.446L135.307 116.334L131.43 116.952L130.8 113.002ZM89.8 102.602L92.7652 99.9168L89.8 102.602ZM76.4 4.60156H72.4V0.601562H76.4V4.60156ZM130.8 4.60156V0.601562H134.8V4.60156H130.8ZM130.8 59.0015H134.8V63.0015H130.8V59.0015ZM102.8 59.0015L98.8459 58.3974L99.3647 55.0015H102.8V59.0015ZM106.8 82.4016L103.54 84.7197L103.523 84.6954L103.506 84.6707L106.8 82.4016ZM127.6 90.2015L127.268 86.2153L131.036 85.9015L131.561 89.6456L127.6 90.2015ZM58.4 113.002L62.3612 112.446L62.9069 116.334L59.0297 116.952L58.4 113.002ZM17.4 102.602L20.3652 99.9168L17.4 102.602ZM4 4.60156H0V0.601562H4V4.60156ZM58.4 4.60156V0.601562H62.4V4.60156H58.4ZM58.4 59.0015H62.4V63.0015H58.4V59.0015ZM30.4 59.0015L26.4459 58.3974L26.9647 55.0015H30.4V59.0015ZM34.4 82.4016L31.1402 84.7197L31.1229 84.6954L31.106 84.6707L34.4 82.4016ZM55.2 90.2015L54.8678 86.2153L58.6357 85.9015L59.1612 89.6456L55.2 90.2015ZM131.43 116.952C112.278 120.005 97.0112 116.526 86.8348 105.287L92.7652 99.9168C100.455 108.411 112.522 111.865 130.17 109.052L131.43 116.952ZM86.8348 105.287C76.9924 94.4156 72.4 78.7597 72.4 59.0015H80.4C80.4 77.6434 84.7409 91.0542 92.7652 99.9168L86.8348 105.287ZM72.4 59.0015V4.60156H80.4V59.0015H72.4ZM76.4 0.601562H130.8V8.60156H76.4V0.601562ZM134.8 4.60156V59.0015H126.8V4.60156H134.8ZM130.8 63.0015H102.8V55.0015H130.8V63.0015ZM106.754 59.6056C105.389 68.5419 106.709 75.2189 110.094 80.1323L103.506 84.6707C98.6241 77.5841 97.2778 68.6612 98.8459 58.3974L106.754 59.6056ZM110.06 80.0835C113.256 84.5778 118.58 86.9393 127.268 86.2153L127.932 94.1878C117.42 95.0638 108.878 92.2254 103.54 84.7197L110.06 80.0835ZM131.561 89.6456L134.761 112.446L126.839 113.558L123.639 90.7575L131.561 89.6456ZM59.0297 116.952C39.878 120.005 24.6112 116.526 14.4348 105.287L20.3652 99.9168C28.0555 108.411 40.122 111.865 57.7703 109.052L59.0297 116.952ZM14.4348 105.287C4.59241 94.4156 0 78.7597 0 59.0015H8C8 77.6434 12.3409 91.0542 20.3652 99.9168L14.4348 105.287ZM0 59.0015V4.60156H8V59.0015H0ZM4 0.601562H58.4V8.60156H4V0.601562ZM62.4 4.60156V59.0015H54.4V4.60156H62.4ZM58.4 63.0015H30.4V55.0015H58.4V63.0015ZM34.3541 59.6056C32.9889 68.5419 34.3093 75.2189 37.694 80.1323L31.106 84.6707C26.2241 77.5841 24.8778 68.6612 26.4459 58.3974L34.3541 59.6056ZM37.6598 80.0835C40.8557 84.5778 46.1804 86.9393 54.8678 86.2153L55.5322 94.1878C45.0196 95.0638 36.4776 92.2254 31.1402 84.7197L37.6598 80.0835ZM59.1612 89.6456L62.3612 112.446L54.4388 113.558L51.2388 90.7575L59.1612 89.6456Z" fill="#166F32"/>
</svg>
