<svg width="52" height="52" viewBox="0 0 52 52" fill="none" xmlns="http://www.w3.org/2000/svg">
<g clip-path="url(#clip0)">
<path d="M1.69922 25.1984C2.25222 25.1984 2.69922 24.7514 2.69922 24.1984C2.69922 18.1334 7.63422 13.1984 13.6992 13.1984H37.6992V22.1624L51.3992 12.1984L37.6992 2.23438V11.1984H13.6992C6.53122 11.1984 0.699219 17.0304 0.699219 24.1984C0.699219 24.7514 1.14622 25.1984 1.69922 25.1984ZM39.6992 6.16237L47.9992 12.1984L39.6992 18.2344V6.16237Z" fill="#166F32"/>
<path d="M49.7 26.1992C49.147 26.1992 48.7 26.6462 48.7 27.1992C48.7 33.2642 43.765 38.1992 37.7 38.1992H13.7V29.2352L0 39.1992L13.7 49.1632V40.1992H37.7C44.868 40.1992 50.7 34.3672 50.7 27.1992C50.7 26.6462 50.253 26.1992 49.7 26.1992ZM11.7 45.2352L3.4 39.1992L11.7 33.1632V45.2352Z" fill="#166F32"/>
</g>
<defs>
<clipPath id="clip0">
<rect width="51.4" height="51.4" fill="white"/>
</clipPath>
</defs>
</svg>
