<svg width="48" height="48" viewBox="0 0 48 48" fill="none" xmlns="http://www.w3.org/2000/svg">
<g clip-path="url(#clip0)">
<path d="M32.4045 22.5736C32.4012 22.5736 32.398 22.5736 32.3947 22.5736H28.3749V18.544C28.3803 17.7313 27.7259 17.0679 26.9132 17.0625C26.9098 17.0625 26.9065 17.0625 26.9033 17.0625H21.0959C20.2832 17.0625 19.6243 17.7214 19.6243 18.5341V22.5637H15.6045C14.7918 22.5583 14.1285 23.2126 14.123 24.0253C14.123 24.032 14.123 24.0385 14.123 24.0452V29.8427C14.123 30.6555 14.7819 31.3144 15.5947 31.3144H19.6243V35.3341C19.6189 36.1468 20.2733 36.8102 21.086 36.8156C21.0893 36.8156 21.0927 36.8156 21.0959 36.8156H26.8934C27.7061 36.8156 28.365 36.1567 28.365 35.344V31.3144H32.3947C33.2074 31.3198 33.8707 30.6653 33.8761 29.8526C33.8761 29.8493 33.8761 29.846 33.8761 29.8427V24.0452C33.8761 23.2325 33.2174 22.5736 32.4045 22.5736ZM31.9008 29.339H27.3872C26.8418 29.339 26.3996 29.7813 26.3996 30.3267V34.8403H21.5996V30.3267C21.5996 29.7813 21.1574 29.339 20.6119 29.339H16.0984V24.5489H20.6119C21.1574 24.5489 21.5996 24.1067 21.5996 23.5613V19.0378H26.3897V23.5514C26.3897 24.0968 26.8319 24.539 27.3774 24.539H31.9008V29.339Z" fill="#166F32"/>
<path d="M41.1852 9.67394H33.0469V6.1974C33.0981 4.61098 31.8536 3.28332 30.2672 3.23209C30.1863 3.22949 30.1054 3.23024 30.0247 3.23443H17.9753C16.3901 3.15184 15.0381 4.36986 14.9554 5.95493C14.9512 6.03567 14.9504 6.11653 14.9531 6.1974V9.65419H6.81482C3.67407 9.65419 0 11.4418 0 16.469V37.9505C0 42.9776 3.67407 44.7653 6.81482 44.7653H41.1852C44.3259 44.7653 48 42.9776 48 37.9505V16.4888C48 11.4616 44.3358 9.67394 41.1852 9.67394ZM16.9284 6.1974C16.9284 5.91098 16.9284 5.14061 17.9852 5.14061H30.0247C31.0815 5.14061 31.0815 5.9011 31.0815 6.1974V9.65419H16.9284V6.1974ZM46.0247 37.9505C46.0247 42.3159 42.6469 42.79 41.1852 42.79H6.81482C5.36296 42.79 1.97531 42.3159 1.97531 37.9505V16.4888C1.97531 12.1233 5.35309 11.6492 6.81482 11.6492H41.1852C42.637 11.6492 46.0247 12.1233 46.0247 16.4888V37.9505Z" fill="#166F32"/>
</g>
<defs>
<clipPath id="clip0">
<rect width="48" height="48" fill="white"/>
</clipPath>
</defs>
</svg>
