<svg width="36" height="36" viewBox="0 0 36 36" fill="none" xmlns="http://www.w3.org/2000/svg">
<path d="M35.4086 32.5695L28.6108 25.7917C30.804 22.9975 31.9941 19.547 31.9897 15.9949C31.9897 12.8314 31.0516 9.73893 29.2941 7.10859C27.5365 4.47825 25.0385 2.42815 22.1158 1.21754C19.1931 0.00693026 15.9771 -0.309821 12.8744 0.307344C9.77172 0.924508 6.92171 2.44787 4.68479 4.68479C2.44787 6.92171 0.924508 9.77172 0.307344 12.8744C-0.309821 15.9771 0.00693026 19.1931 1.21754 22.1158C2.42815 25.0385 4.47825 27.5365 7.10859 29.2941C9.73893 31.0516 12.8314 31.9897 15.9949 31.9897C19.547 31.9941 22.9975 30.804 25.7917 28.6108L32.5695 35.4086C32.7554 35.596 32.9765 35.7447 33.2201 35.8462C33.4638 35.9477 33.7251 36 33.9891 36C34.253 36 34.5143 35.9477 34.758 35.8462C35.0016 35.7447 35.2227 35.596 35.4086 35.4086C35.596 35.2227 35.7447 35.0016 35.8462 34.758C35.9477 34.5143 36 34.253 36 33.9891C36 33.7251 35.9477 33.4638 35.8462 33.2201C35.7447 32.9765 35.596 32.7554 35.4086 32.5695ZM3.99872 15.9949C3.99872 13.6222 4.70228 11.3029 6.02043 9.33016C7.33858 7.3574 9.21212 5.81983 11.4041 4.91187C13.5961 4.00391 16.0082 3.76635 18.3352 4.22922C20.6622 4.69209 22.7997 5.83462 24.4774 7.5123C26.1551 9.18999 27.2976 11.3275 27.7605 13.6545C28.2234 15.9815 27.9858 18.3936 27.0778 20.5856C26.1699 22.7776 24.6323 24.6511 22.6595 25.9693C20.6868 27.2874 18.3675 27.991 15.9949 27.991C12.8133 27.991 9.76202 26.7271 7.5123 24.4774C5.26259 22.2277 3.99872 19.1764 3.99872 15.9949Z" fill="white"/>
</svg>
