<svg width="40" height="39" viewBox="0 0 40 39" fill="none" xmlns="http://www.w3.org/2000/svg">
<path d="M4.7 0C2.11545 0 0 2.06509 0 4.5881V33.9519C0 36.4749 2.11545 38.54 4.7 38.54H34.78C37.3645 38.54 39.48 36.4749 39.48 33.9519V4.5881C39.48 2.06509 37.3645 0 34.78 0H4.7ZM4.7 1.83524H34.78C36.3484 1.83524 37.6 3.05706 37.6 4.5881V33.9519C37.6 35.4829 36.3484 36.7048 34.78 36.7048H4.7C3.13163 36.7048 1.88 35.4829 1.88 33.9519V4.5881C1.88 3.05706 3.13163 1.83524 4.7 1.83524ZM18.2327 11.0043C17.2387 11.002 16.3523 11.0563 15.5596 11.4362C15.559 11.4368 15.5583 11.4374 15.5577 11.438C15.1713 11.6239 14.8989 11.8599 14.682 12.1405C14.5735 12.2808 14.4624 12.4068 14.4029 12.7266C14.3732 12.8865 14.3565 13.1456 14.5278 13.4256C14.6991 13.7055 15.0436 13.8646 15.264 13.8933C15.4171 13.9132 15.7627 14.0568 15.7946 14.0994C15.7952 14.1006 15.7958 14.1018 15.7964 14.103C15.7966 14.1033 15.9304 14.4444 15.969 14.7482C16.0075 15.0521 16.0057 15.2984 16.0057 15.2984C16.0053 15.3229 16.0059 15.3475 16.0075 15.3719C16.0075 15.3719 16.062 16.168 16.0259 16.9903C16.0115 17.318 15.9681 17.6096 15.9231 17.8703C15.5883 17.5095 15.0951 16.8562 14.3827 15.6515C13.5925 14.3143 12.9636 13.1155 12.9636 13.1155C12.9305 13.0111 12.8137 12.6861 12.3577 12.3592C11.8592 12.0005 11.3773 11.947 11.3773 11.947C11.3169 11.9351 11.2554 11.9291 11.1937 11.929L7.48879 11.9308C7.48879 11.9308 7.26665 11.9183 7.00043 11.9541C6.73421 11.99 6.33333 12.0192 5.9466 12.4667C5.94599 12.4673 5.94538 12.4679 5.94477 12.4685C5.59914 12.8717 5.62005 13.3172 5.66203 13.5689C5.70401 13.8206 5.79789 14.0116 5.79789 14.0116C5.7997 14.0152 5.80154 14.0188 5.8034 14.0224C5.8034 14.0224 8.83385 20.2422 12.2586 23.9047C14.7455 26.564 17.2981 26.6092 19.404 26.6092H20.9756C21.3768 26.6092 21.7397 26.5939 22.1414 26.3654C22.5431 26.137 22.8134 25.5809 22.8134 25.1951C22.8134 24.7909 22.8752 24.4731 22.9511 24.3097C23.0044 24.1949 23.0467 24.1535 23.1126 24.1198C23.1266 24.1284 23.1176 24.1234 23.1567 24.1502C23.3132 24.2577 23.5716 24.5025 23.8525 24.808C24.4144 25.4189 25.0522 26.2568 25.9088 26.8314C26.5224 27.2434 27.102 27.4264 27.5427 27.4927C27.8188 27.5343 28.0333 27.5263 28.1853 27.5142L31.6956 27.5286C31.7164 27.5287 31.7373 27.5281 31.758 27.5268C31.758 27.5268 32.3629 27.5337 32.9918 27.1665C33.3062 26.983 33.6771 26.6349 33.7978 26.1271C33.9184 25.6192 33.7668 25.093 33.471 24.6126C33.471 24.612 33.471 24.6114 33.471 24.6108C33.5223 24.694 33.4245 24.5231 33.3241 24.3635C33.2237 24.2039 33.078 23.9888 32.8688 23.7219C32.4504 23.1881 31.7802 22.4412 30.6969 21.4565C30.6963 21.4565 30.6957 21.4565 30.695 21.4565C30.1448 20.9568 29.7733 20.603 29.621 20.4063C29.4687 20.2096 29.5187 20.3129 29.5292 20.2629C29.5503 20.1629 30.2106 19.233 31.5543 17.4814C32.371 16.4152 32.9442 15.6147 33.3223 14.9489C33.7003 14.2832 33.9729 13.7066 33.7831 13.0008C33.7825 12.9996 33.7819 12.9984 33.7812 12.9972C33.697 12.6874 33.4668 12.4018 33.2305 12.2463C32.9941 12.0907 32.77 12.0299 32.5695 11.9918C32.1685 11.9156 31.8186 11.929 31.4937 11.929C30.8124 11.929 27.7897 11.9523 27.5409 11.9523C27.2469 11.9523 26.7608 12.0829 26.5458 12.2086C26.0052 12.5262 25.85 12.9434 25.85 12.9434C25.8402 12.9611 25.831 12.979 25.8225 12.9972C25.8225 12.9972 25.1989 14.347 24.3959 15.6802C23.5825 17.0325 22.9815 17.6775 22.6187 17.976C22.6088 17.9229 22.6105 17.966 22.6041 17.8918C22.5715 17.5141 22.6077 16.9923 22.6077 16.4831C22.6077 15.1117 22.7268 14.1519 22.6628 13.3037C22.6308 12.8796 22.5503 12.4423 22.2644 12.0402C21.9785 11.6381 21.5027 11.3769 21.0325 11.2659C20.7504 11.1995 20.4287 11.0267 19.2645 11.015C19.2639 11.015 19.2633 11.015 19.2627 11.015C18.9066 11.0115 18.564 11.005 18.2327 11.0043ZM19.2443 12.8503C20.2745 12.8606 20.0179 12.9159 20.59 13.051C20.7675 13.0928 20.7245 13.0926 20.7204 13.0868C20.7163 13.081 20.7684 13.1757 20.7883 13.4399C20.8282 13.9684 20.7277 15.019 20.7277 16.4831C20.7277 16.8823 20.6784 17.452 20.7296 18.0459C20.7807 18.6398 20.9316 19.402 21.6586 19.8614C22.0031 20.0795 22.4033 20.0932 22.7454 20.0102C23.0876 19.9271 23.398 19.7542 23.724 19.4994C24.3759 18.9898 25.1031 18.1298 26.0171 16.6103C26.8714 15.192 27.4927 13.8413 27.5134 13.7965C27.5174 13.7934 27.5215 13.7912 27.5262 13.7876C27.538 13.7877 27.5258 13.7876 27.5409 13.7876C27.8918 13.7876 30.8589 13.7643 31.4937 13.7643C31.6418 13.7643 31.6958 13.773 31.8131 13.7768C31.7812 13.8808 31.8167 13.8145 31.6773 14.06C31.3849 14.575 30.846 15.3403 30.0488 16.3809C28.7388 18.0887 27.9268 18.7579 27.6878 19.8919C27.5682 20.4589 27.7923 21.0874 28.1211 21.5121C28.4498 21.9368 28.8649 22.3007 29.4154 22.8007C30.4349 23.7274 31.033 24.4007 31.3762 24.8384C31.5478 25.0573 31.6559 25.2154 31.7232 25.3223C31.7904 25.4293 31.7738 25.418 31.8609 25.5589C31.9182 25.6527 31.8971 25.5955 31.9068 25.6234C31.7941 25.6545 31.6575 25.6918 31.6497 25.6933L28.1927 25.679C28.1304 25.679 28.0683 25.685 28.0072 25.6969C28.0072 25.6969 28.0159 25.7068 27.831 25.679C27.646 25.6511 27.3519 25.573 26.9736 25.3188C26.517 25.0125 25.8778 24.263 25.2515 23.5821C24.9383 23.2417 24.6261 22.9147 24.238 22.6483C23.85 22.382 23.2694 22.1315 22.6426 22.324C21.9919 22.5234 21.4854 23.0191 21.2381 23.5516C21.054 23.948 21.0391 24.362 21.0105 24.7739C20.9793 24.7762 21.0152 24.7739 20.9756 24.7739H19.404C17.2687 24.7739 15.7524 24.9181 13.6465 22.6663C10.8138 19.6369 8.21853 14.5966 7.79539 13.7661L11.056 13.7643C11.1133 13.7858 11.236 13.8307 11.2433 13.836C11.2445 13.8372 11.2457 13.8384 11.247 13.8396C11.1278 13.7545 11.2525 13.8736 11.2525 13.8736C11.264 13.9011 11.2768 13.928 11.291 13.9543C11.291 13.9543 11.9371 15.1864 12.7543 16.5691C13.5558 17.9246 14.1399 18.7714 14.704 19.3309C14.9861 19.6107 15.2708 19.8351 15.6514 19.9618C16.0319 20.0885 16.5233 20.042 16.8539 19.865C17.5292 19.5041 17.62 18.9719 17.7296 18.5065C17.8395 18.0405 17.8832 17.5441 17.9041 17.0692C17.9445 16.1473 17.8873 15.3495 17.8839 15.3002C17.8841 15.2829 17.8884 14.9503 17.8343 14.5242C17.7789 14.0879 17.7172 13.5545 17.3129 13.0169L17.3111 13.0151C17.3082 13.0114 17.3047 13.0116 17.3019 13.008C17.8365 12.9331 18.294 12.841 19.2443 12.8503ZM27.5372 13.7499L27.5244 13.7786C27.5224 13.7797 27.523 13.7773 27.5207 13.7786C27.5247 13.7712 27.5372 13.7499 27.5372 13.7499Z" fill="#fff"/>
</svg>
